# xmcd
#
# Track frame offsets:
#	150
#	18722
#	37188
#	55303
#	70771
#	87457
#	103697
#	119378
#	138351
#	154229
#	172424
#
# Disc length: 2547 seconds
#
# Revision: 0
# Processed by: cddbd v1.5.2PL0 Copyright (c) Steve Scherf et al.
# Submitted via: MuRip/1.0beta +https://www.muman.ch
#
DISCID=a309f10b
DTITLE=Jen Elliott - 8 Days Down
DYEAR=2006
DGENRE=Blues
TTITLE0=Captivity
TTITLE1=8 Days Down
TTITLE2=Full
TTITLE3=Try To Forget
TTITLE4=Full Stop
TTITLE5=Bringing Me Down
TTITLE6=Stand
TTITLE7=Garden of Delight
TTITLE8=You Are So Cruel
TTITLE9=Blue Fog
TTITLE10=Crazy
EXTD=Barcode: 8 81017 00092 0
EXTT0=
EXTT1=
EXTT2=
EXTT3=
EXTT4=
EXTT5=
EXTT6=
EXTT7=
EXTT8=
EXTT9=
EXTT10=
PLAYORDER=
